<svg width="20" height="19" viewBox="0 0 20 19" fill="none" xmlns="http://www.w3.org/2000/svg">
<rect x="0.5" y="0.5" width="18.8285" height="17.953" rx="8.9765" fill="#FDFDFD"/>
<rect x="0.5" y="0.5" width="18.8285" height="17.953" rx="8.9765" stroke="#FFBF60"/>
<path d="M13.922 3.453H5.922C4.81743 3.453 3.922 4.34843 3.922 5.453V12.453C3.922 13.5576 4.81743 14.453 5.922 14.453H13.922C15.0266 14.453 15.922 13.5576 15.922 12.453V5.453C15.922 4.34843 15.0266 3.453 13.922 3.453Z" fill="url(#paint0_linear_403_3132)"/>
<path d="M13.922 3.453H5.922C4.81743 3.453 3.922 4.34843 3.922 5.453V12.453C3.922 13.5576 4.81743 14.453 5.922 14.453H13.922C15.0266 14.453 15.922 13.5576 15.922 12.453V5.453C15.922 4.34843 15.0266 3.453 13.922 3.453Z" fill="url(#paint1_linear_403_3132)"/>
<path d="M13.922 3.453H5.922C4.81743 3.453 3.922 4.34843 3.922 5.453V12.453C3.922 13.5576 4.81743 14.453 5.922 14.453H13.922C15.0266 14.453 15.922 13.5576 15.922 12.453V5.453C15.922 4.34843 15.0266 3.453 13.922 3.453Z" fill="url(#paint2_linear_403_3132)"/>
<path d="M13.922 3.453H5.922C4.81743 3.453 3.922 4.34843 3.922 5.453V12.453C3.922 13.5576 4.81743 14.453 5.922 14.453H13.922C15.0266 14.453 15.922 13.5576 15.922 12.453V5.453C15.922 4.34843 15.0266 3.453 13.922 3.453Z" fill="url(#paint3_linear_403_3132)"/>
<path d="M13.922 3.453H5.922C4.81743 3.453 3.922 4.34843 3.922 5.453V12.453C3.922 13.5576 4.81743 14.453 5.922 14.453H13.922C15.0266 14.453 15.922 13.5576 15.922 12.453V5.453C15.922 4.34843 15.0266 3.453 13.922 3.453Z" fill="url(#paint4_linear_403_3132)"/>
<path d="M13.922 3.453H5.922C4.81743 3.453 3.922 4.34843 3.922 5.453V12.453C3.922 13.5576 4.81743 14.453 5.922 14.453H13.922C15.0266 14.453 15.922 13.5576 15.922 12.453V5.453C15.922 4.34843 15.0266 3.453 13.922 3.453Z" fill="url(#paint5_radial_403_3132)"/>
<path d="M13.922 3.453H5.922C4.81743 3.453 3.922 4.34843 3.922 5.453V12.453C3.922 13.5576 4.81743 14.453 5.922 14.453H13.922C15.0266 14.453 15.922 13.5576 15.922 12.453V5.453C15.922 4.34843 15.0266 3.453 13.922 3.453Z" fill="url(#paint6_radial_403_3132)"/>
<path d="M13.922 3.453H5.922C4.81743 3.453 3.922 4.34843 3.922 5.453V12.453C3.922 13.5576 4.81743 14.453 5.922 14.453H13.922C15.0266 14.453 15.922 13.5576 15.922 12.453V5.453C15.922 4.34843 15.0266 3.453 13.922 3.453Z" fill="url(#paint7_radial_403_3132)"/>
<path d="M13.922 3.453H5.922C4.81743 3.453 3.922 4.34843 3.922 5.453V12.453C3.922 13.5576 4.81743 14.453 5.922 14.453H13.922C15.0266 14.453 15.922 13.5576 15.922 12.453V5.453C15.922 4.34843 15.0266 3.453 13.922 3.453Z" fill="url(#paint8_radial_403_3132)"/>
<path d="M13.922 3.453H5.922C4.81743 3.453 3.922 4.34843 3.922 5.453V12.453C3.922 13.5576 4.81743 14.453 5.922 14.453H13.922C15.0266 14.453 15.922 13.5576 15.922 12.453V5.453C15.922 4.34843 15.0266 3.453 13.922 3.453Z" fill="url(#paint9_linear_403_3132)"/>
<g filter="url(#filter0_f_403_3132)">
<path d="M14.2815 6.11255H15.3905V12.136C15.3862 12.2803 15.3258 12.4172 15.2223 12.5177C15.1187 12.6182 14.9801 12.6744 14.8358 12.6744C14.6914 12.6744 14.5528 12.6182 14.4492 12.5177C14.3457 12.4172 14.2853 12.2803 14.281 12.136L14.2815 6.11255Z" fill="url(#paint10_linear_403_3132)" fill-opacity="0.75"/>
</g>
<g filter="url(#filter1_f_403_3132)">
<path d="M15.0469 11.6905L11.6734 4.71047C11.6258 4.61175 11.605 4.50223 11.613 4.39291C11.6211 4.28359 11.6577 4.17831 11.7193 4.08764C11.7809 3.99696 11.8653 3.92408 11.964 3.87631C12.0626 3.82854 12.1721 3.80756 12.2814 3.81547L13.4504 3.90047C13.7484 3.92205 14.0391 4.00275 14.3056 4.13787C14.572 4.27299 14.8089 4.45982 15.0024 4.68746C15.1959 4.91511 15.3421 5.179 15.4325 5.46376C15.5229 5.74851 15.5557 6.04841 15.5289 6.34597L15.0469 11.6905Z" fill="#D89475"/>
</g>
<path d="M13.953 11.875C13.953 9.6375 11.797 8.9375 9.953 8.9375C7.8905 8.9375 5.922 9.7185 5.922 11.875C5.922 13.85 8.078 15.5465 9.953 15.5465C12.203 15.5465 13.953 13.2185 13.953 11.875Z" fill="url(#paint11_radial_403_3132)"/>
<path d="M13.953 11.875C13.953 9.6375 11.797 8.9375 9.953 8.9375C7.8905 8.9375 5.922 9.7185 5.922 11.875C5.922 13.85 8.078 15.5465 9.953 15.5465C12.203 15.5465 13.953 13.2185 13.953 11.875Z" fill="url(#paint12_radial_403_3132)"/>
<path d="M13.953 11.875C13.953 9.6375 11.797 8.9375 9.953 8.9375C7.8905 8.9375 5.922 9.7185 5.922 11.875C5.922 13.85 8.078 15.5465 9.953 15.5465C12.203 15.5465 13.953 13.2185 13.953 11.875Z" fill="url(#paint13_radial_403_3132)"/>
<g filter="url(#filter2_i_403_3132)">
<path d="M8.41748 13.281L9.92198 12.156L11.426 13.281V14.453C11.426 15.2815 10.7505 15.953 9.92198 15.953C9.52375 15.9531 9.14173 15.7953 8.85976 15.5141C8.57779 15.2328 8.41891 14.8512 8.41798 14.453L8.41748 13.281Z" fill="url(#paint14_linear_403_3132)"/>
</g>
<g filter="url(#filter3_f_403_3132)">
<path d="M9.73451 12.156V15.867C11.018 15.8045 11.344 14.7345 11.344 14.32V13.188C10.3985 13.0005 9.87701 12.422 9.73401 12.1565" fill="url(#paint15_linear_403_3132)"/>
</g>
<g filter="url(#filter4_f_403_3132)">
<path d="M10.249 12.401L9.92202 12.156L9.58752 12.406C9.39052 12.8975 8.97952 12.9895 8.61902 13.0635V13.5085C9.09902 13.462 9.62952 13.282 9.91902 12.7135C10.2105 13.2835 10.744 13.4635 11.2245 13.5085V13.0645C10.8615 12.992 10.446 12.898 10.2495 12.401" fill="#BD1836"/>
</g>
<path d="M8.1875 12.9451C8.1212 12.9451 8.05761 12.9714 8.01072 13.0183C7.96384 13.0652 7.9375 13.1288 7.9375 13.1951C7.9375 13.2614 7.96384 13.325 8.01072 13.3718C8.05761 13.4187 8.1212 13.4451 8.1875 13.4451V12.9451ZM10.172 11.2111C10.172 11.1448 10.1457 11.0812 10.0988 11.0343C10.0519 10.9874 9.9883 10.9611 9.922 10.9611C9.8557 10.9611 9.79211 10.9874 9.74522 11.0343C9.69834 11.0812 9.672 11.1448 9.672 11.2111H10.172ZM8.1875 13.4451C9.042 13.4451 10.172 12.7031 10.172 11.2111H9.672C9.672 12.4061 8.7865 12.9451 8.1875 12.9451V13.4451Z" fill="url(#paint16_radial_403_3132)"/>
<path d="M8.1875 12.9451C8.1212 12.9451 8.05761 12.9714 8.01072 13.0183C7.96384 13.0652 7.9375 13.1288 7.9375 13.1951C7.9375 13.2614 7.96384 13.325 8.01072 13.3718C8.05761 13.4187 8.1212 13.4451 8.1875 13.4451V12.9451ZM10.172 11.2111C10.172 11.1448 10.1457 11.0812 10.0988 11.0343C10.0519 10.9874 9.9883 10.9611 9.922 10.9611C9.8557 10.9611 9.79211 10.9874 9.74522 11.0343C9.69834 11.0812 9.672 11.1448 9.672 11.2111H10.172ZM8.1875 13.4451C9.042 13.4451 10.172 12.7031 10.172 11.2111H9.672C9.672 12.4061 8.7865 12.9451 8.1875 12.9451V13.4451Z" fill="url(#paint17_linear_403_3132)"/>
<path d="M11.6505 13.1951C10.924 13.1951 9.91602 12.5551 9.91602 11.2111" stroke="url(#paint18_radial_403_3132)" stroke-width="0.5" stroke-linecap="round"/>
<path d="M11.6505 13.1951C10.924 13.1951 9.91602 12.5551 9.91602 11.2111" stroke="url(#paint19_linear_403_3132)" stroke-width="0.5" stroke-linecap="round"/>
<path d="M10.1746 11.2111C10.1746 11.1448 10.1482 11.0812 10.1013 11.0343C10.0544 10.9874 9.99086 10.9611 9.92455 10.9611H9.91905C9.85275 10.9611 9.78916 10.9874 9.74228 11.0343C9.69539 11.0812 9.66905 11.1448 9.66905 11.2111C9.66905 11.2521 9.66989 11.2926 9.67155 11.3326C9.61355 12.4431 8.76855 12.9451 8.19055 12.9451C8.12425 12.9451 8.06066 12.9714 8.01378 13.0183C7.96689 13.0652 7.94055 13.1288 7.94055 13.1951C7.94055 13.2614 7.96689 13.325 8.01378 13.3718C8.06066 13.4187 8.12425 13.4451 8.19055 13.4451C8.79555 13.4451 9.54005 13.0721 9.92205 12.3241C10.3041 13.0721 11.0481 13.4451 11.6536 13.4451C11.7199 13.4451 11.7834 13.4187 11.8303 13.3718C11.8772 13.325 11.9036 13.2614 11.9036 13.1951C11.9036 13.1288 11.8772 13.0652 11.8303 13.0183C11.7834 12.9714 11.7199 12.9451 11.6536 12.9451C11.0756 12.9451 10.2301 12.4431 10.1721 11.3326C10.1737 11.2921 10.1745 11.2516 10.1746 11.2111Z" fill="url(#paint20_radial_403_3132)"/>
<path d="M4.135 9.134L7.785 3.9865C7.85132 3.89296 7.89063 3.78298 7.89863 3.6686C7.90663 3.55421 7.88301 3.43983 7.83035 3.33798C7.77769 3.23612 7.69803 3.15071 7.60008 3.0911C7.50213 3.03149 7.38966 2.99997 7.275 3H5.25C4.65326 3 4.08097 3.23705 3.65901 3.65901C3.23705 4.08097 3 4.65326 3 5.25V8.7725C3 9.3815 3.7825 9.631 4.135 9.134Z" fill="url(#paint21_linear_403_3132)"/>
<path d="M4.135 9.134L7.785 3.9865C7.85132 3.89296 7.89063 3.78298 7.89863 3.6686C7.90663 3.55421 7.88301 3.43983 7.83035 3.33798C7.77769 3.23612 7.69803 3.15071 7.60008 3.0911C7.50213 3.03149 7.38966 2.99997 7.275 3H5.25C4.65326 3 4.08097 3.23705 3.65901 3.65901C3.23705 4.08097 3 4.65326 3 5.25V8.7725C3 9.3815 3.7825 9.631 4.135 9.134Z" fill="url(#paint22_linear_403_3132)"/>
<path d="M4.135 9.134L7.785 3.9865C7.85132 3.89296 7.89063 3.78298 7.89863 3.6686C7.90663 3.55421 7.88301 3.43983 7.83035 3.33798C7.77769 3.23612 7.69803 3.15071 7.60008 3.0911C7.50213 3.03149 7.38966 2.99997 7.275 3H5.25C4.65326 3 4.08097 3.23705 3.65901 3.65901C3.23705 4.08097 3 4.65326 3 5.25V8.7725C3 9.3815 3.7825 9.631 4.135 9.134Z" fill="url(#paint23_linear_403_3132)"/>
<path d="M4.135 9.134L7.785 3.9865C7.85132 3.89296 7.89063 3.78298 7.89863 3.6686C7.90663 3.55421 7.88301 3.43983 7.83035 3.33798C7.77769 3.23612 7.69803 3.15071 7.60008 3.0911C7.50213 3.03149 7.38966 2.99997 7.275 3H5.25C4.65326 3 4.08097 3.23705 3.65901 3.65901C3.23705 4.08097 3 4.65326 3 5.25V8.7725C3 9.3815 3.7825 9.631 4.135 9.134Z" fill="url(#paint24_linear_403_3132)"/>
<path d="M4.135 9.134L7.785 3.9865C7.85132 3.89296 7.89063 3.78298 7.89863 3.6686C7.90663 3.55421 7.88301 3.43983 7.83035 3.33798C7.77769 3.23612 7.69803 3.15071 7.60008 3.0911C7.50213 3.03149 7.38966 2.99997 7.275 3H5.25C4.65326 3 4.08097 3.23705 3.65901 3.65901C3.23705 4.08097 3 4.65326 3 5.25V8.7725C3 9.3815 3.7825 9.631 4.135 9.134Z" fill="url(#paint25_radial_403_3132)"/>
<path d="M15.6935 9.134L12.0435 3.9865C11.9772 3.89296 11.9379 3.78298 11.9299 3.6686C11.9219 3.55421 11.9455 3.43983 11.9981 3.33798C12.0508 3.23612 12.1305 3.15071 12.2284 3.0911C12.3264 3.03149 12.4388 2.99997 12.5535 3H14.5785C15.1752 3 15.7475 3.23705 16.1695 3.65901C16.5914 4.08097 16.8285 4.65326 16.8285 5.25V8.7725C16.8285 9.3815 16.0455 9.631 15.6935 9.134Z" fill="url(#paint26_linear_403_3132)"/>
<path d="M15.6935 9.134L12.0435 3.9865C11.9772 3.89296 11.9379 3.78298 11.9299 3.6686C11.9219 3.55421 11.9455 3.43983 11.9981 3.33798C12.0508 3.23612 12.1305 3.15071 12.2284 3.0911C12.3264 3.03149 12.4388 2.99997 12.5535 3H14.5785C15.1752 3 15.7475 3.23705 16.1695 3.65901C16.5914 4.08097 16.8285 4.65326 16.8285 5.25V8.7725C16.8285 9.3815 16.0455 9.631 15.6935 9.134Z" fill="url(#paint27_linear_403_3132)"/>
<path d="M15.6935 9.134L12.0435 3.9865C11.9772 3.89296 11.9379 3.78298 11.9299 3.6686C11.9219 3.55421 11.9455 3.43983 11.9981 3.33798C12.0508 3.23612 12.1305 3.15071 12.2284 3.0911C12.3264 3.03149 12.4388 2.99997 12.5535 3H14.5785C15.1752 3 15.7475 3.23705 16.1695 3.65901C16.5914 4.08097 16.8285 4.65326 16.8285 5.25V8.7725C16.8285 9.3815 16.0455 9.631 15.6935 9.134Z" fill="url(#paint28_linear_403_3132)"/>
<path d="M15.6935 9.134L12.0435 3.9865C11.9772 3.89296 11.9379 3.78298 11.9299 3.6686C11.9219 3.55421 11.9455 3.43983 11.9981 3.33798C12.0508 3.23612 12.1305 3.15071 12.2284 3.0911C12.3264 3.03149 12.4388 2.99997 12.5535 3H14.5785C15.1752 3 15.7475 3.23705 16.1695 3.65901C16.5914 4.08097 16.8285 4.65326 16.8285 5.25V8.7725C16.8285 9.3815 16.0455 9.631 15.6935 9.134Z" fill="url(#paint29_radial_403_3132)"/>
<g filter="url(#filter5_f_403_3132)">
<path d="M8.18749 7.0675H8.18699C7.9832 7.0675 7.81799 7.23271 7.81799 7.4365V8.18701C7.81799 8.3908 7.9832 8.55601 8.18699 8.55601H8.18749C8.39129 8.55601 8.55649 8.3908 8.55649 8.18701V7.4365C8.55649 7.23271 8.39129 7.0675 8.18749 7.0675Z" fill="#DC9868"/>
</g>
<path d="M8.42053 6.95801H8.42003C8.21623 6.95801 8.05103 7.12321 8.05103 7.32701V8.07751C8.05103 8.2813 8.21623 8.44651 8.42003 8.44651H8.42053C8.62432 8.44651 8.78953 8.2813 8.78953 8.07751V7.32701C8.78953 7.12321 8.62432 6.95801 8.42053 6.95801Z" fill="url(#paint30_linear_403_3132)"/>
<path d="M8.42053 6.95801H8.42003C8.21623 6.95801 8.05103 7.12321 8.05103 7.32701V8.07751C8.05103 8.2813 8.21623 8.44651 8.42003 8.44651H8.42053C8.62432 8.44651 8.78953 8.2813 8.78953 8.07751V7.32701C8.78953 7.12321 8.62432 6.95801 8.42053 6.95801Z" fill="url(#paint31_linear_403_3132)"/>
<g filter="url(#filter6_f_403_3132)">
<path d="M8.54797 7.18445V7.98145" stroke="#725F62" stroke-width="0.1" stroke-linecap="round"/>
</g>
<path d="M11.4125 6.95801H11.412C11.2082 6.95801 11.043 7.12321 11.043 7.32701V8.07751C11.043 8.2813 11.2082 8.44651 11.412 8.44651H11.4125C11.6163 8.44651 11.7815 8.2813 11.7815 8.07751V7.32701C11.7815 7.12321 11.6163 6.95801 11.4125 6.95801Z" fill="url(#paint32_linear_403_3132)"/>
<path d="M11.4125 6.95801H11.412C11.2082 6.95801 11.043 7.12321 11.043 7.32701V8.07751C11.043 8.2813 11.2082 8.44651 11.412 8.44651H11.4125C11.6163 8.44651 11.7815 8.2813 11.7815 8.07751V7.32701C11.7815 7.12321 11.6163 6.95801 11.4125 6.95801Z" fill="url(#paint33_linear_403_3132)"/>
<g filter="url(#filter7_f_403_3132)">
<path d="M11.54 7.18445V7.98145" stroke="#725F62" stroke-width="0.1" stroke-linecap="round"/>
</g>
<path d="M10.4225 9.45203H9.46905C9.39311 9.45197 9.31873 9.47352 9.25459 9.51417C9.19045 9.55482 9.13921 9.61289 9.10685 9.68159C9.0745 9.75029 9.06237 9.82677 9.07187 9.90211C9.08138 9.97745 9.11214 10.0485 9.16055 10.107L9.49805 10.515C9.55582 10.5848 9.62865 10.6407 9.71109 10.6783C9.79352 10.7159 9.88341 10.7344 9.974 10.7324C10.0646 10.7303 10.1536 10.7077 10.2342 10.6664C10.3148 10.625 10.385 10.5659 10.4395 10.4935L10.742 10.093C10.7869 10.0336 10.8143 9.96284 10.8211 9.8887C10.8279 9.81456 10.8139 9.73998 10.7807 9.67336C10.7474 9.60675 10.6962 9.55074 10.6329 9.51163C10.5695 9.47253 10.497 9.45189 10.4225 9.45203Z" fill="url(#paint34_linear_403_3132)"/>
<path d="M10.4225 9.45203H9.46905C9.39311 9.45197 9.31873 9.47352 9.25459 9.51417C9.19045 9.55482 9.13921 9.61289 9.10685 9.68159C9.0745 9.75029 9.06237 9.82677 9.07187 9.90211C9.08138 9.97745 9.11214 10.0485 9.16055 10.107L9.49805 10.515C9.55582 10.5848 9.62865 10.6407 9.71109 10.6783C9.79352 10.7159 9.88341 10.7344 9.974 10.7324C10.0646 10.7303 10.1536 10.7077 10.2342 10.6664C10.3148 10.625 10.385 10.5659 10.4395 10.4935L10.742 10.093C10.7869 10.0336 10.8143 9.96284 10.8211 9.8887C10.8279 9.81456 10.8139 9.73998 10.7807 9.67336C10.7474 9.60675 10.6962 9.55074 10.6329 9.51163C10.5695 9.47253 10.497 9.45189 10.4225 9.45203Z" fill="url(#paint35_radial_403_3132)"/>
<path d="M10.4225 9.45203H9.46905C9.39311 9.45197 9.31873 9.47352 9.25459 9.51417C9.19045 9.55482 9.13921 9.61289 9.10685 9.68159C9.0745 9.75029 9.06237 9.82677 9.07187 9.90211C9.08138 9.97745 9.11214 10.0485 9.16055 10.107L9.49805 10.515C9.55582 10.5848 9.62865 10.6407 9.71109 10.6783C9.79352 10.7159 9.88341 10.7344 9.974 10.7324C10.0646 10.7303 10.1536 10.7077 10.2342 10.6664C10.3148 10.625 10.385 10.5659 10.4395 10.4935L10.742 10.093C10.7869 10.0336 10.8143 9.96284 10.8211 9.8887C10.8279 9.81456 10.8139 9.73998 10.7807 9.67336C10.7474 9.60675 10.6962 9.55074 10.6329 9.51163C10.5695 9.47253 10.497 9.45189 10.4225 9.45203Z" fill="url(#paint36_linear_403_3132)"/>
<g filter="url(#filter8_f_403_3132)">
<path d="M10.6173 9.91401C10.6616 9.8741 10.6421 9.78019 10.5737 9.70426C10.5054 9.62833 10.414 9.59913 10.3697 9.63904C10.3254 9.67895 10.3448 9.77286 10.4132 9.84879C10.4816 9.92472 10.5729 9.95392 10.6173 9.91401Z" fill="#786366"/>
</g>
<g filter="url(#filter9_f_403_3132)">
<path d="M16.375 4.59656V8.72156" stroke="url(#paint37_linear_403_3132)" stroke-width="0.1"/>
</g>
<g filter="url(#filter10_f_403_3132)">
<path d="M7.57794 3.69055L5.78894 6.26805" stroke="url(#paint38_linear_403_3132)" stroke-width="0.1"/>
</g>
<defs>
<filter id="filter0_f_403_3132" x="13.031" y="4.86255" width="3.6095" height="9.06189" filterUnits="userSpaceOnUse" color-interpolation-filters="sRGB">
<feFlood flood-opacity="0" result="BackgroundImageFix"/>
<feBlend mode="normal" in="SourceGraphic" in2="BackgroundImageFix" result="shape"/>
<feGaussianBlur stdDeviation="0.625" result="effect1_foregroundBlur_403_3132"/>
</filter>
<filter id="filter1_f_403_3132" x="10.6113" y="2.81384" width="5.92664" height="9.87659" filterUnits="userSpaceOnUse" color-interpolation-filters="sRGB">
<feFlood flood-opacity="0" result="BackgroundImageFix"/>
<feBlend mode="normal" in="SourceGraphic" in2="BackgroundImageFix" result="shape"/>
<feGaussianBlur stdDeviation="0.5" result="effect1_foregroundBlur_403_3132"/>
</filter>
<filter id="filter2_i_403_3132" x="8.41748" y="11.906" width="3.00854" height="4.047" filterUnits="userSpaceOnUse" color-interpolation-filters="sRGB">
<feFlood flood-opacity="0" result="BackgroundImageFix"/>
<feBlend mode="normal" in="SourceGraphic" in2="BackgroundImageFix" result="shape"/>
<feColorMatrix in="SourceAlpha" type="matrix" values="0 0 0 0 0 0 0 0 0 0 0 0 0 0 0 0 0 0 127 0" result="hardAlpha"/>
<feOffset dy="-0.25"/>
<feGaussianBlur stdDeviation="0.125"/>
<feComposite in2="hardAlpha" operator="arithmetic" k2="-1" k3="1"/>
<feColorMatrix type="matrix" values="0 0 0 0 0.841667 0 0 0 0 0.164826 0 0 0 0 0.552771 0 0 0 1 0"/>
<feBlend mode="normal" in2="shape" result="effect1_innerShadow_403_3132"/>
</filter>
<filter id="filter3_f_403_3132" x="9.53401" y="11.956" width="2.00999" height="4.11106" filterUnits="userSpaceOnUse" color-interpolation-filters="sRGB">
<feFlood flood-opacity="0" result="BackgroundImageFix"/>
<feBlend mode="normal" in="SourceGraphic" in2="BackgroundImageFix" result="shape"/>
<feGaussianBlur stdDeviation="0.1" result="effect1_foregroundBlur_403_3132"/>
</filter>
<filter id="filter4_f_403_3132" x="8.36902" y="11.906" width="3.10547" height="1.85254" filterUnits="userSpaceOnUse" color-interpolation-filters="sRGB">
<feFlood flood-opacity="0" result="BackgroundImageFix"/>
<feBlend mode="normal" in="SourceGraphic" in2="BackgroundImageFix" result="shape"/>
<feGaussianBlur stdDeviation="0.125" result="effect1_foregroundBlur_403_3132"/>
</filter>
<filter id="filter5_f_403_3132" x="7.41799" y="6.6675" width="1.53853" height="2.28853" filterUnits="userSpaceOnUse" color-interpolation-filters="sRGB">
<feFlood flood-opacity="0" result="BackgroundImageFix"/>
<feBlend mode="normal" in="SourceGraphic" in2="BackgroundImageFix" result="shape"/>
<feGaussianBlur stdDeviation="0.2" result="effect1_foregroundBlur_403_3132"/>
</filter>
<filter id="filter6_f_403_3132" x="8.34792" y="6.9844" width="0.400098" height="1.19709" filterUnits="userSpaceOnUse" color-interpolation-filters="sRGB">
<feFlood flood-opacity="0" result="BackgroundImageFix"/>
<feBlend mode="normal" in="SourceGraphic" in2="BackgroundImageFix" result="shape"/>
<feGaussianBlur stdDeviation="0.075" result="effect1_foregroundBlur_403_3132"/>
</filter>
<filter id="filter7_f_403_3132" x="11.34" y="6.9844" width="0.400098" height="1.19709" filterUnits="userSpaceOnUse" color-interpolation-filters="sRGB">
<feFlood flood-opacity="0" result="BackgroundImageFix"/>
<feBlend mode="normal" in="SourceGraphic" in2="BackgroundImageFix" result="shape"/>
<feGaussianBlur stdDeviation="0.075" result="effect1_foregroundBlur_403_3132"/>
</filter>
<filter id="filter8_f_403_3132" x="10.0959" y="9.37122" width="0.795044" height="0.810669" filterUnits="userSpaceOnUse" color-interpolation-filters="sRGB">
<feFlood flood-opacity="0" result="BackgroundImageFix"/>
<feBlend mode="normal" in="SourceGraphic" in2="BackgroundImageFix" result="shape"/>
<feGaussianBlur stdDeviation="0.125" result="effect1_foregroundBlur_403_3132"/>
</filter>
<filter id="filter9_f_403_3132" x="15.95" y="4.22156" width="0.850098" height="4.875" filterUnits="userSpaceOnUse" color-interpolation-filters="sRGB">
<feFlood flood-opacity="0" result="BackgroundImageFix"/>
<feBlend mode="normal" in="SourceGraphic" in2="BackgroundImageFix" result="shape"/>
<feGaussianBlur stdDeviation="0.1875" result="effect1_foregroundBlur_403_3132"/>
</filter>
<filter id="filter10_f_403_3132" x="5.49792" y="3.41199" width="2.37109" height="3.13452" filterUnits="userSpaceOnUse" color-interpolation-filters="sRGB">
<feFlood flood-opacity="0" result="BackgroundImageFix"/>
<feBlend mode="normal" in="SourceGraphic" in2="BackgroundImageFix" result="shape"/>
<feGaussianBlur stdDeviation="0.125" result="effect1_foregroundBlur_403_3132"/>
</filter>
<linearGradient id="paint0_linear_403_3132" x1="9.922" y1="3.9715" x2="9.922" y2="16.6745" gradientUnits="userSpaceOnUse">
<stop stop-color="#F7C5A1"/>
<stop offset="1" stop-color="#E28454"/>
</linearGradient>
<linearGradient id="paint1_linear_403_3132" x1="3.3595" y1="14.453" x2="5.7655" y2="14.453" gradientUnits="userSpaceOnUse">
<stop stop-color="#BD8465"/>
<stop offset="1" stop-color="#BD8465" stop-opacity="0"/>
</linearGradient>
<linearGradient id="paint2_linear_403_3132" x1="17.828" y1="14.453" x2="14.0155" y2="14.453" gradientUnits="userSpaceOnUse">
<stop stop-color="#FFC390"/>
<stop offset="1" stop-color="#FFC390" stop-opacity="0"/>
</linearGradient>
<linearGradient id="paint3_linear_403_3132" x1="9.922" y1="11.5965" x2="9.922" y2="16.6905" gradientUnits="userSpaceOnUse">
<stop stop-color="#89254F" stop-opacity="0"/>
<stop offset="1" stop-color="#98335E"/>
</linearGradient>
<linearGradient id="paint4_linear_403_3132" x1="9.922" y1="14.2215" x2="9.922" y2="14.6125" gradientUnits="userSpaceOnUse">
<stop stop-color="#E273A2" stop-opacity="0"/>
<stop offset="1" stop-color="#E273A2"/>
</linearGradient>
<radialGradient id="paint5_radial_403_3132" cx="0" cy="0" r="1" gradientUnits="userSpaceOnUse" gradientTransform="translate(2.9535 7.0345) rotate(76.072) scale(4.02458 3.59668)">
<stop stop-color="#BD8465"/>
<stop offset="1" stop-color="#BD8465" stop-opacity="0"/>
</radialGradient>
<radialGradient id="paint6_radial_403_3132" cx="0" cy="0" r="1" gradientUnits="userSpaceOnUse" gradientTransform="translate(9.922 12.4715) rotate(180) scale(5.40625 4.14371)">
<stop stop-color="#AD5C30"/>
<stop offset="1" stop-color="#AD5C30" stop-opacity="0"/>
</radialGradient>
<radialGradient id="paint7_radial_403_3132" cx="0" cy="0" r="1" gradientUnits="userSpaceOnUse" gradientTransform="translate(9.35955 13.2839) rotate(87.745) scale(3.97182 3.47295)">
<stop stop-color="#AD5C30"/>
<stop offset="1" stop-color="#AD5C30" stop-opacity="0"/>
</radialGradient>
<radialGradient id="paint8_radial_403_3132" cx="0" cy="0" r="1" gradientUnits="userSpaceOnUse" gradientTransform="translate(8.172 3.453) rotate(70.7479) scale(4.0971 9.40825)">
<stop stop-color="#FFD6B3"/>
<stop offset="1" stop-color="#FFC390" stop-opacity="0"/>
</radialGradient>
<linearGradient id="paint9_linear_403_3132" x1="9.523" y1="2.8195" x2="9.523" y2="4.1605" gradientUnits="userSpaceOnUse">
<stop stop-color="#FFE0C6"/>
<stop offset="1" stop-color="#FFC390" stop-opacity="0"/>
</linearGradient>
<linearGradient id="paint10_linear_403_3132" x1="15.625" y1="11.8145" x2="15.825" y2="3.32555" gradientUnits="userSpaceOnUse">
<stop stop-color="#FFC390"/>
<stop offset="1" stop-color="#FFC390" stop-opacity="0"/>
</linearGradient>
<radialGradient id="paint11_radial_403_3132" cx="0" cy="0" r="1" gradientUnits="userSpaceOnUse" gradientTransform="translate(9.9375 10.2215) rotate(90) scale(5.8125 12.0156)">
<stop stop-color="#FFE3B6"/>
<stop offset="0.318" stop-color="#F5C19B"/>
<stop offset="0.896" stop-color="#BE625B"/>
</radialGradient>
<radialGradient id="paint12_radial_403_3132" cx="0" cy="0" r="1" gradientUnits="userSpaceOnUse" gradientTransform="translate(11.172 10.9405) rotate(140.599) scale(6.79415 6.9521)">
<stop offset="0.595" stop-color="#BE625B" stop-opacity="0"/>
<stop offset="1" stop-color="#BE625B"/>
</radialGradient>
<radialGradient id="paint13_radial_403_3132" cx="0" cy="0" r="1" gradientUnits="userSpaceOnUse" gradientTransform="translate(13.4845 9.4405) rotate(125.776) scale(2.61923 3.41749)">
<stop stop-color="#FFE9BE"/>
<stop offset="1" stop-color="#FFE9BE" stop-opacity="0"/>
</radialGradient>
<linearGradient id="paint14_linear_403_3132" x1="9.04698" y1="11.5655" x2="9.04698" y2="15.159" gradientUnits="userSpaceOnUse">
<stop stop-color="#B41D4E"/>
<stop offset="1" stop-color="#C9297C"/>
</linearGradient>
<linearGradient id="paint15_linear_403_3132" x1="12.064" y1="15.75" x2="9.73451" y2="15.7995" gradientUnits="userSpaceOnUse">
<stop offset="0.438" stop-color="#F26D9E"/>
<stop offset="0.948" stop-color="#EF6A9A" stop-opacity="0"/>
</linearGradient>
<radialGradient id="paint16_radial_403_3132" cx="0" cy="0" r="1" gradientUnits="userSpaceOnUse" gradientTransform="translate(9.055 12.3311) rotate(48.0128) scale(0.840851 1.91023)">
<stop stop-color="#261317"/>
<stop offset="0.653" stop-color="#65484A"/>
<stop offset="1" stop-color="#3C1534"/>
</radialGradient>
<linearGradient id="paint17_linear_403_3132" x1="8.1875" y1="13.0811" x2="9.11" y2="12.8721" gradientUnits="userSpaceOnUse">
<stop stop-color="#4A3435"/>
<stop offset="1" stop-color="#473132" stop-opacity="0"/>
</linearGradient>
<radialGradient id="paint18_radial_403_3132" cx="0" cy="0" r="1" gradientUnits="userSpaceOnUse" gradientTransform="translate(10.8554 12.2493) rotate(132.556) scale(0.906805 2.17377)">
<stop stop-color="#261317"/>
<stop offset="0.508" stop-color="#65484A"/>
<stop offset="0.902" stop-color="#3C1534"/>
</radialGradient>
<linearGradient id="paint19_linear_403_3132" x1="10.0155" y1="10.7141" x2="10.2355" y2="11.5151" gradientUnits="userSpaceOnUse">
<stop stop-color="#65484A"/>
<stop offset="1" stop-color="#65484A" stop-opacity="0"/>
</linearGradient>
<radialGradient id="paint20_radial_403_3132" cx="0" cy="0" r="1" gradientUnits="userSpaceOnUse" gradientTransform="translate(9.31255 11.5421) rotate(133.995) scale(1.88959 0.949698)">
<stop stop-color="#392930"/>
<stop offset="1" stop-color="#392930" stop-opacity="0"/>
</radialGradient>
<linearGradient id="paint21_linear_403_3132" x1="5.742" y1="3" x2="3.344" y2="8.753" gradientUnits="userSpaceOnUse">
<stop stop-color="#9F6C5B"/>
<stop offset="1" stop-color="#683C44"/>
</linearGradient>
<linearGradient id="paint22_linear_403_3132" x1="2.297" y1="6.628" x2="4.1405" y2="6.628" gradientUnits="userSpaceOnUse">
<stop stop-color="#5F333B"/>
<stop offset="1" stop-color="#683C44" stop-opacity="0"/>
</linearGradient>
<linearGradient id="paint23_linear_403_3132" x1="5.922" y1="7.2215" x2="5.375" y2="6.8" gradientUnits="userSpaceOnUse">
<stop offset="0.208" stop-color="#5F333B"/>
<stop offset="1" stop-color="#683C44" stop-opacity="0"/>
</linearGradient>
<linearGradient id="paint24_linear_403_3132" x1="3.8125" y1="10.128" x2="4.469" y2="7.284" gradientUnits="userSpaceOnUse">
<stop stop-color="#50212A"/>
<stop offset="1" stop-color="#683C44" stop-opacity="0"/>
</linearGradient>
<radialGradient id="paint25_radial_403_3132" cx="0" cy="0" r="1" gradientUnits="userSpaceOnUse" gradientTransform="translate(7.54705 1.4404) rotate(125.218) scale(4.55189 4.82299)">
<stop stop-color="#BF867C"/>
<stop offset="1" stop-color="#BF867C" stop-opacity="0"/>
</radialGradient>
<linearGradient id="paint26_linear_403_3132" x1="14.086" y1="3" x2="16.4845" y2="8.753" gradientUnits="userSpaceOnUse">
<stop stop-color="#9F6C5B"/>
<stop offset="1" stop-color="#683C44"/>
</linearGradient>
<linearGradient id="paint27_linear_403_3132" x1="13.297" y1="7.7215" x2="14.922" y2="6.628" gradientUnits="userSpaceOnUse">
<stop stop-color="#5F333B"/>
<stop offset="1" stop-color="#683C44" stop-opacity="0"/>
</linearGradient>
<linearGradient id="paint28_linear_403_3132" x1="16.0155" y1="10.128" x2="15.3595" y2="7.284" gradientUnits="userSpaceOnUse">
<stop stop-color="#50212A"/>
<stop offset="1" stop-color="#683C44" stop-opacity="0"/>
</linearGradient>
<radialGradient id="paint29_radial_403_3132" cx="0" cy="0" r="1" gradientUnits="userSpaceOnUse" gradientTransform="translate(18.4216 6.28375) rotate(-173.904) scale(3.23705 3.42985)">
<stop stop-color="#BF867C"/>
<stop offset="1" stop-color="#BF867C" stop-opacity="0"/>
</radialGradient>
<linearGradient id="paint30_linear_403_3132" x1="9.03853" y1="7.70201" x2="7.93503" y2="7.70201" gradientUnits="userSpaceOnUse">
<stop offset="0.006" stop-color="#5F5254"/>
<stop offset="1" stop-color="#2E2127"/>
</linearGradient>
<linearGradient id="paint31_linear_403_3132" x1="7.93503" y1="8.49901" x2="7.93503" y2="8.08001" gradientUnits="userSpaceOnUse">
<stop offset="0.006" stop-color="#34222C"/>
<stop offset="1" stop-color="#34222C" stop-opacity="0"/>
</linearGradient>
<linearGradient id="paint32_linear_403_3132" x1="12.0305" y1="7.70201" x2="10.9275" y2="7.70201" gradientUnits="userSpaceOnUse">
<stop offset="0.006" stop-color="#5F5254"/>
<stop offset="1" stop-color="#2E2127"/>
</linearGradient>
<linearGradient id="paint33_linear_403_3132" x1="10.9275" y1="8.49901" x2="10.9275" y2="8.08001" gradientUnits="userSpaceOnUse">
<stop offset="0.006" stop-color="#34222C"/>
<stop offset="1" stop-color="#34222C" stop-opacity="0"/>
</linearGradient>
<linearGradient id="paint34_linear_403_3132" x1="10.6405" y1="9.31553" x2="9.17205" y2="10.784" gradientUnits="userSpaceOnUse">
<stop offset="0.191" stop-color="#5F5254"/>
<stop offset="1" stop-color="#2E2127"/>
</linearGradient>
<radialGradient id="paint35_radial_403_3132" cx="0" cy="0" r="1" gradientUnits="userSpaceOnUse" gradientTransform="translate(10.1093 9.76815) rotate(135.864) scale(1.09946 2.02365)">
<stop offset="0.463" stop-color="#34222C" stop-opacity="0"/>
<stop offset="0.956" stop-color="#34222C"/>
</radialGradient>
<linearGradient id="paint36_linear_403_3132" x1="10.125" y1="10.0265" x2="10.125" y2="9.16703" gradientUnits="userSpaceOnUse">
<stop offset="0.147" stop-color="#34222C" stop-opacity="0"/>
<stop offset="0.873" stop-color="#34222C"/>
</linearGradient>
<linearGradient id="paint37_linear_403_3132" x1="-nan" y1="-nan" x2="-nan" y2="-nan" gradientUnits="userSpaceOnUse">
<stop stop-color="#B3887F"/>
<stop offset="1" stop-color="#B3887F" stop-opacity="0"/>
</linearGradient>
<linearGradient id="paint38_linear_403_3132" x1="7.57044" y1="4.18255" x2="5.63294" y2="7.05755" gradientUnits="userSpaceOnUse">
<stop stop-color="#D3B4AE"/>
<stop offset="1" stop-color="#D3B4AE" stop-opacity="0"/>
</linearGradient>
</defs>
</svg>
