<svg width="71" height="58" viewBox="0 0 71 58" fill="none" xmlns="http://www.w3.org/2000/svg">
<g clip-path="url(#clip0_728_1791)">
<path d="M13.9537 6.90002L18.2484 2.60523C19.7129 1.14076 22.0873 1.14076 23.5517 2.60523L27.8465 6.90002L20.9001 13.8465L13.9537 6.90002Z" fill="#FF3333" stroke="white" stroke-width="0.5"/>
<rect x="6.6536" y="14.2" width="9.82376" height="9.82376" transform="rotate(-45 6.6536 14.2)" fill="#FF3333" stroke="white" stroke-width="0.5"/>
<rect x="6.6536" y="28.8" width="9.82376" height="9.82376" transform="rotate(-45 6.6536 28.8)" fill="#FF3333" stroke="white" stroke-width="0.5"/>
<rect x="35.8536" y="43.4" width="9.82376" height="9.82376" transform="rotate(-45 35.8536 43.4)" fill="#FF3333" stroke="white" stroke-width="0.5"/>
<rect x="13.9537" y="36.1" width="9.82376" height="9.82376" transform="rotate(-45 13.9537 36.1)" fill="#D61E92" stroke="white" stroke-width="0.5"/>
<rect x="21.2535" y="28.8" width="9.82376" height="9.82376" transform="rotate(-45 21.2535 28.8)" fill="#D61E92" stroke="white" stroke-width="0.5"/>
<rect x="28.5535" y="21.5" width="9.82376" height="9.82376" transform="rotate(-45 28.5535 21.5)" fill="#D61E92" stroke="white" stroke-width="0.5"/>
<rect x="35.8536" y="14.2" width="9.82376" height="9.82376" transform="rotate(-45 35.8536 14.2)" fill="#FF47B5" stroke="white" stroke-width="0.5"/>
<path d="M43.1536 6.90002L47.4484 2.60523C48.9129 1.14076 51.2872 1.14076 52.7517 2.60523L57.0465 6.90002L50.1001 13.8465L43.1536 6.90002Z" fill="#FF47B5" stroke="white" stroke-width="0.5"/>
<rect x="50.4537" y="14.2" width="9.82376" height="9.82376" transform="rotate(-45 50.4537 14.2)" fill="#FF47B5" stroke="white" stroke-width="0.5"/>
<path d="M57.7535 21.5L64.6999 14.5536L68.9947 18.8483C70.4592 20.3128 70.4592 22.6872 68.9947 24.1517L64.6999 28.4464L57.7535 21.5Z" fill="#FF47B5" stroke="white" stroke-width="0.5"/>
<rect x="35.8536" y="28.8" width="9.82376" height="9.82376" transform="rotate(-45 35.8536 28.8)" fill="#D61E92" stroke="white" stroke-width="0.5"/>
<rect x="43.1536" y="36.1" width="9.82376" height="9.82376" transform="rotate(-45 43.1536 36.1)" fill="#D61E92" stroke="white" stroke-width="0.5"/>
<rect x="21.2535" y="43.4" width="9.82376" height="9.82376" transform="rotate(-45 21.2535 43.4)" fill="#D61E92" stroke="white" stroke-width="0.5"/>
<path d="M28.5535 50.7L35.5 43.7536L42.4464 50.7L35.5 57.6465L28.5535 50.7Z" fill="#D61E92" stroke="white" stroke-width="0.5"/>
<path d="M2.0052 24.1517C0.540738 22.6872 0.540737 20.3128 2.0052 18.8483L6.3 14.5536L13.2464 21.5L6.3 28.4464L2.0052 24.1517Z" fill="#FF3333" stroke="white" stroke-width="0.5"/>
</g>
<defs>
<clipPath id="clip0_728_1791">
<rect width="71" height="58" fill="white"/>
</clipPath>
</defs>
</svg>
