<svg width="15" height="14" viewBox="0 0 15 14" fill="none" xmlns="http://www.w3.org/2000/svg">
<path d="M6.52025 13.1012C6.65154 13.1736 6.79938 13.2105 6.94927 13.2085C7.09915 13.2065 7.24594 13.1656 7.37525 13.0897C9.16725 12.0662 12.2802 9.70923 13.5027 6.64773C15.2977 2.66123 11.0837 -0.520771 8.17175 1.76773C7.86775 2.00673 7.48575 2.28023 7.22325 2.53873C7.10425 2.65573 6.89475 2.66773 6.77125 2.55573C6.42625 2.24073 5.88575 1.83773 5.53875 1.60323C3.05625 -0.076771 -1.46125 2.13773 0.465746 6.86323C1.17175 8.98423 4.53575 11.9932 6.52025 13.1012Z" fill="url(#paint0_radial_850_1561)"/>
<path d="M6.52025 13.1012C6.65154 13.1736 6.79938 13.2105 6.94927 13.2085C7.09915 13.2065 7.24594 13.1656 7.37525 13.0897C9.16725 12.0662 12.2802 9.70923 13.5027 6.64773C15.2977 2.66123 11.0837 -0.520771 8.17175 1.76773C7.86775 2.00673 7.48575 2.28023 7.22325 2.53873C7.10425 2.65573 6.89475 2.66773 6.77125 2.55573C6.42625 2.24073 5.88575 1.83773 5.53875 1.60323C3.05625 -0.076771 -1.46125 2.13773 0.465746 6.86323C1.17175 8.98423 4.53575 11.9932 6.52025 13.1012Z" fill="url(#paint1_radial_850_1561)"/>
<path d="M6.52025 13.1012C6.65154 13.1736 6.79938 13.2105 6.94927 13.2085C7.09915 13.2065 7.24594 13.1656 7.37525 13.0897C9.16725 12.0662 12.2802 9.70923 13.5027 6.64773C15.2977 2.66123 11.0837 -0.520771 8.17175 1.76773C7.86775 2.00673 7.48575 2.28023 7.22325 2.53873C7.10425 2.65573 6.89475 2.66773 6.77125 2.55573C6.42625 2.24073 5.88575 1.83773 5.53875 1.60323C3.05625 -0.076771 -1.46125 2.13773 0.465746 6.86323C1.17175 8.98423 4.53575 11.9932 6.52025 13.1012Z" fill="url(#paint2_radial_850_1561)"/>
<path d="M6.52025 13.1012C6.65154 13.1736 6.79938 13.2105 6.94927 13.2085C7.09915 13.2065 7.24594 13.1656 7.37525 13.0897C9.16725 12.0662 12.2802 9.70923 13.5027 6.64773C15.2977 2.66123 11.0837 -0.520771 8.17175 1.76773C7.86775 2.00673 7.48575 2.28023 7.22325 2.53873C7.10425 2.65573 6.89475 2.66773 6.77125 2.55573C6.42625 2.24073 5.88575 1.83773 5.53875 1.60323C3.05625 -0.076771 -1.46125 2.13773 0.465746 6.86323C1.17175 8.98423 4.53575 11.9932 6.52025 13.1012Z" fill="url(#paint3_radial_850_1561)"/>
<path d="M6.52025 13.1012C6.65154 13.1736 6.79938 13.2105 6.94927 13.2085C7.09915 13.2065 7.24594 13.1656 7.37525 13.0897C9.16725 12.0662 12.2802 9.70923 13.5027 6.64773C15.2977 2.66123 11.0837 -0.520771 8.17175 1.76773C7.86775 2.00673 7.48575 2.28023 7.22325 2.53873C7.10425 2.65573 6.89475 2.66773 6.77125 2.55573C6.42625 2.24073 5.88575 1.83773 5.53875 1.60323C3.05625 -0.076771 -1.46125 2.13773 0.465746 6.86323C1.17175 8.98423 4.53575 11.9932 6.52025 13.1012Z" fill="url(#paint4_linear_850_1561)"/>
<path d="M6.52025 13.1012C6.65154 13.1736 6.79938 13.2105 6.94927 13.2085C7.09915 13.2065 7.24594 13.1656 7.37525 13.0897C9.16725 12.0662 12.2802 9.70923 13.5027 6.64773C15.2977 2.66123 11.0837 -0.520771 8.17175 1.76773C7.86775 2.00673 7.48575 2.28023 7.22325 2.53873C7.10425 2.65573 6.89475 2.66773 6.77125 2.55573C6.42625 2.24073 5.88575 1.83773 5.53875 1.60323C3.05625 -0.076771 -1.46125 2.13773 0.465746 6.86323C1.17175 8.98423 4.53575 11.9932 6.52025 13.1012Z" fill="url(#paint5_linear_850_1561)"/>
<path d="M6.52025 13.1012C6.65154 13.1736 6.79938 13.2105 6.94927 13.2085C7.09915 13.2065 7.24594 13.1656 7.37525 13.0897C9.16725 12.0662 12.2802 9.70923 13.5027 6.64773C15.2977 2.66123 11.0837 -0.520771 8.17175 1.76773C7.86775 2.00673 7.48575 2.28023 7.22325 2.53873C7.10425 2.65573 6.89475 2.66773 6.77125 2.55573C6.42625 2.24073 5.88575 1.83773 5.53875 1.60323C3.05625 -0.076771 -1.46125 2.13773 0.465746 6.86323C1.17175 8.98423 4.53575 11.9932 6.52025 13.1012Z" fill="url(#paint6_radial_850_1561)" fill-opacity="0.6"/>
<g filter="url(#filter0_f_850_1561)">
<path d="M6.86572 3.77019V7.18169C6.86572 7.63419 7.41372 7.84869 7.69572 7.49519C8.56822 6.40019 9.27222 5.06969 8.48672 3.98269C8.18572 3.56569 7.60872 3.29869 7.13722 3.38369C6.96122 3.41519 6.86572 3.59119 6.86572 3.77069" fill="#FA1C56"/>
</g>
<g filter="url(#filter1_f_850_1561)">
<path d="M12.5328 5.51528C13.4162 4.65643 13.5551 3.36629 12.8429 2.63368C12.1307 1.90106 10.8372 2.00341 9.9537 2.86226C9.07021 3.72112 8.93134 5.01126 9.64353 5.74387C10.3557 6.47648 11.6493 6.37414 12.5328 5.51528Z" fill="url(#paint7_radial_850_1561)"/>
</g>
<g filter="url(#filter2_f_850_1561)">
<path d="M10.6195 1.71039C11.0833 1.7687 11.4693 1.7369 11.4816 1.63936C11.4938 1.54182 11.1277 1.41548 10.6639 1.35717C10.2 1.29886 9.81403 1.33066 9.80177 1.4282C9.78951 1.52574 10.1556 1.65208 10.6195 1.71039Z" fill="#FF7383"/>
</g>
<g filter="url(#filter3_f_850_1561)">
<path d="M3.60769 1.65112C4.02712 1.64602 4.36645 1.58614 4.36562 1.51739C4.36478 1.44864 4.02409 1.39704 3.60466 1.40214C3.18523 1.40724 2.84589 1.46711 2.84673 1.53587C2.84757 1.60462 3.18826 1.65622 3.60769 1.65112Z" fill="#FF93BA" fill-opacity="0.5"/>
</g>
<g filter="url(#filter4_f_850_1561)">
<path d="M6.33418 3.48124L6.49068 8.60624C3.05318 5.26224 2.39168 2.91424 3.70918 2.38724C4.95918 1.88724 5.95918 2.69974 6.33418 3.48124Z" fill="url(#paint8_radial_850_1561)"/>
</g>
<g filter="url(#filter5_f_850_1561)">
<path d="M6.08423 3.1812C5.66423 3.1212 5.53423 2.7727 5.52173 2.6062C5.76173 2.8562 5.99673 2.8772 6.08423 2.8562V3.1812Z" fill="#FF7383"/>
</g>
<defs>
<filter id="filter0_f_850_1561" x="5.86572" y="2.36792" width="3.96143" height="6.30383" filterUnits="userSpaceOnUse" color-interpolation-filters="sRGB">
<feFlood flood-opacity="0" result="BackgroundImageFix"/>
<feBlend mode="normal" in="SourceGraphic" in2="BackgroundImageFix" result="shape"/>
<feGaussianBlur stdDeviation="0.5" result="effect1_foregroundBlur_850_1561"/>
</filter>
<filter id="filter1_f_850_1561" x="8.43848" y="1.39478" width="5.60962" height="5.58801" filterUnits="userSpaceOnUse" color-interpolation-filters="sRGB">
<feFlood flood-opacity="0" result="BackgroundImageFix"/>
<feBlend mode="normal" in="SourceGraphic" in2="BackgroundImageFix" result="shape"/>
<feGaussianBlur stdDeviation="0.375" result="effect1_foregroundBlur_850_1561"/>
</filter>
<filter id="filter2_f_850_1561" x="8.80151" y="0.328003" width="3.68042" height="2.41162" filterUnits="userSpaceOnUse" color-interpolation-filters="sRGB">
<feFlood flood-opacity="0" result="BackgroundImageFix"/>
<feBlend mode="normal" in="SourceGraphic" in2="BackgroundImageFix" result="shape"/>
<feGaussianBlur stdDeviation="0.5" result="effect1_foregroundBlur_850_1561"/>
</filter>
<filter id="filter3_f_850_1561" x="2.09668" y="0.651733" width="3.01904" height="1.74976" filterUnits="userSpaceOnUse" color-interpolation-filters="sRGB">
<feFlood flood-opacity="0" result="BackgroundImageFix"/>
<feBlend mode="normal" in="SourceGraphic" in2="BackgroundImageFix" result="shape"/>
<feGaussianBlur stdDeviation="0.375" result="effect1_foregroundBlur_850_1561"/>
</filter>
<filter id="filter4_f_850_1561" x="1.57812" y="0.733398" width="6.4126" height="9.3728" filterUnits="userSpaceOnUse" color-interpolation-filters="sRGB">
<feFlood flood-opacity="0" result="BackgroundImageFix"/>
<feBlend mode="normal" in="SourceGraphic" in2="BackgroundImageFix" result="shape"/>
<feGaussianBlur stdDeviation="0.75" result="effect1_foregroundBlur_850_1561"/>
</filter>
<filter id="filter5_f_850_1561" x="5.02173" y="2.1062" width="1.5625" height="1.57495" filterUnits="userSpaceOnUse" color-interpolation-filters="sRGB">
<feFlood flood-opacity="0" result="BackgroundImageFix"/>
<feBlend mode="normal" in="SourceGraphic" in2="BackgroundImageFix" result="shape"/>
<feGaussianBlur stdDeviation="0.25" result="effect1_foregroundBlur_850_1561"/>
</filter>
<radialGradient id="paint0_radial_850_1561" cx="0" cy="0" r="1" gradientUnits="userSpaceOnUse" gradientTransform="translate(6.85325 1.31723) rotate(90) scale(11.4923 12.201)">
<stop stop-color="#FC0000"/>
<stop offset="0.528" stop-color="#FF3B79"/>
<stop offset="1" stop-color="#F724B3"/>
</radialGradient>
<radialGradient id="paint1_radial_850_1561" cx="0" cy="0" r="1" gradientUnits="userSpaceOnUse" gradientTransform="translate(10.4242 4.18173) rotate(134.402) scale(10.6324 19.9154)">
<stop offset="0.798" stop-color="#C82092" stop-opacity="0"/>
<stop offset="0.908" stop-color="#C82092"/>
</radialGradient>
<radialGradient id="paint2_radial_850_1561" cx="0" cy="0" r="1" gradientUnits="userSpaceOnUse" gradientTransform="translate(8.91025 7.39473) rotate(-158.663) scale(11.3745 16.0795)">
<stop offset="0.41" stop-color="#B91D43" stop-opacity="0"/>
<stop offset="0.834" stop-color="#B91D43"/>
</radialGradient>
<radialGradient id="paint3_radial_850_1561" cx="0" cy="0" r="1" gradientUnits="userSpaceOnUse" gradientTransform="translate(6.69175 5.40823) rotate(90) scale(9.8996)">
<stop offset="0.671" stop-color="#FF7AF2" stop-opacity="0"/>
<stop offset="0.934" stop-color="#FFBCE6"/>
</radialGradient>
<linearGradient id="paint4_linear_850_1561" x1="7.78425" y1="6.56673" x2="11.7907" y2="11.3347" gradientUnits="userSpaceOnUse">
<stop offset="0.694" stop-color="#FF7AF2" stop-opacity="0"/>
<stop offset="0.934" stop-color="#FFBCE6"/>
</linearGradient>
<linearGradient id="paint5_linear_850_1561" x1="7.28775" y1="6.76523" x2="2.58625" y2="12.0627" gradientUnits="userSpaceOnUse">
<stop offset="0.694" stop-color="#FF7AF2" stop-opacity="0"/>
<stop offset="0.934" stop-color="#FFBCE6"/>
</linearGradient>
<radialGradient id="paint6_radial_850_1561" cx="0" cy="0" r="1" gradientUnits="userSpaceOnUse" gradientTransform="translate(8.08525 4.94823) rotate(164.618) scale(8.6073 9.0901)">
<stop offset="0.802" stop-color="#FF73A6" stop-opacity="0"/>
<stop offset="1" stop-color="#FF93BA"/>
</radialGradient>
<radialGradient id="paint7_radial_850_1561" cx="0" cy="0" r="1" gradientUnits="userSpaceOnUse" gradientTransform="translate(12.7975 2.59094) rotate(128.737) scale(3.64568 4.84781)">
<stop stop-color="#FF7383"/>
<stop offset="1" stop-color="#FF7383" stop-opacity="0"/>
</radialGradient>
<radialGradient id="paint8_radial_850_1561" cx="0" cy="0" r="1" gradientUnits="userSpaceOnUse" gradientTransform="translate(7.08418 5.42024) rotate(-135.591) scale(6.34305 11.26)">
<stop stop-color="#FF6274"/>
<stop offset="1" stop-color="#FF6274" stop-opacity="0"/>
</radialGradient>
</defs>
</svg>
