<svg width="33" height="32" viewBox="0 0 33 32" fill="none" xmlns="http://www.w3.org/2000/svg">
<g clip-path="url(#clip0_268_3489)">
<path d="M16.5 32C25.3366 32 32.5 24.8366 32.5 16C32.5 7.16344 25.3366 0 16.5 0C7.66344 0 0.5 7.16344 0.5 16C0.5 24.8366 7.66344 32 16.5 32Z" fill="#FEE500"/>
<path d="M16.5462 7.72205C11.5684 7.72205 7.55389 10.9336 7.55389 14.8324C7.55389 17.3632 9.22391 19.5792 11.7289 20.8445L10.8811 24.0112C10.8651 24.0585 10.8626 24.1096 10.874 24.1582C10.8853 24.207 10.91 24.2518 10.9453 24.2873C10.9968 24.3326 11.063 24.3577 11.1316 24.3579C11.1885 24.3534 11.2424 24.3309 11.2857 24.2937L14.9341 21.8337C15.4726 21.908 16.0155 21.9465 16.5592 21.9493C21.5307 21.9493 25.5515 18.7377 25.5515 14.8324C25.5515 10.9272 21.5178 7.72205 16.5462 7.72205Z" fill="#392020"/>
<path d="M10.701 13.7084H9.71821C9.59641 13.7119 9.47611 13.6807 9.37136 13.6184C9.32486 13.5893 9.28488 13.5509 9.25393 13.5055C9.22297 13.4602 9.20173 13.409 9.19152 13.3551C9.1884 13.3209 9.1884 13.2865 9.19152 13.2524C9.18846 13.1884 9.20088 13.1246 9.22771 13.0665C9.25456 13.0083 9.29501 12.9575 9.34566 12.9183C9.45765 12.8372 9.59281 12.7944 9.73105 12.7963H12.6921C12.8149 12.7919 12.936 12.8256 13.039 12.8926C13.0866 12.9205 13.1274 12.9586 13.1585 13.0041C13.1896 13.0497 13.2102 13.1015 13.2188 13.156C13.222 13.188 13.222 13.2203 13.2188 13.2524C13.2219 13.3172 13.2095 13.3819 13.1827 13.4411C13.1559 13.5003 13.1154 13.5522 13.0647 13.5927C12.9554 13.6737 12.8216 13.7146 12.6857 13.7084H11.7351V17.087C11.7389 17.1589 11.7278 17.2309 11.7024 17.2984C11.6769 17.3658 11.6378 17.4272 11.5873 17.4787C11.539 17.528 11.4809 17.5666 11.4167 17.592C11.3525 17.6174 11.2838 17.6293 11.2148 17.6266C11.0942 17.6299 10.9761 17.5914 10.8808 17.5173C10.7901 17.445 10.7285 17.3424 10.7074 17.2283C10.701 17.1814 10.701 17.1339 10.7074 17.087L10.701 13.7084Z" fill="#FEE500"/>
<path d="M13.5023 13.0467C13.5306 12.941 13.5969 12.8495 13.6886 12.7898C13.7863 12.7344 13.8976 12.7077 14.0098 12.7127H14.2538C14.3729 12.7084 14.4907 12.7373 14.5943 12.7962C14.704 12.87 14.782 12.9823 14.8127 13.1109L16.0973 16.74C16.1306 16.8347 16.1585 16.9312 16.1808 17.0291C16.183 17.0697 16.183 17.1104 16.1808 17.151C16.183 17.2137 16.1714 17.276 16.147 17.3337C16.1226 17.3913 16.0859 17.443 16.0395 17.4851C15.9945 17.5312 15.9405 17.5677 15.8808 17.592C15.8211 17.6161 15.757 17.628 15.6926 17.6264C15.5936 17.6363 15.4941 17.6125 15.4102 17.5589C15.3263 17.5053 15.2629 17.4249 15.2302 17.331L14.9604 16.5409H13.2711L13.0013 17.331C12.9694 17.4269 12.9053 17.5088 12.8198 17.5625C12.7343 17.6165 12.6327 17.639 12.5325 17.6264C12.4238 17.6293 12.3174 17.5953 12.2306 17.5301C12.1459 17.4627 12.0888 17.3669 12.07 17.2603C12.0666 17.224 12.0666 17.1873 12.07 17.151C12.059 17.0873 12.059 17.0222 12.07 16.9584C12.07 16.8878 12.115 16.8107 12.1406 16.74L13.5023 13.0467ZM14.1447 13.8882L13.5345 15.8151H14.7484L14.1447 13.8882Z" fill="#FEE500"/>
<path d="M16.3279 13.2524C16.3214 13.1083 16.3722 12.9674 16.4692 12.8606C16.5185 12.8109 16.5777 12.772 16.643 12.7465C16.7083 12.7211 16.7782 12.7096 16.8481 12.7128C16.9685 12.7114 17.0859 12.7498 17.1822 12.822C17.2713 12.8974 17.3307 13.0022 17.3491 13.1175C17.3555 13.1622 17.3555 13.2077 17.3491 13.2524V16.631H19.1155C19.2379 16.6294 19.3584 16.6627 19.4624 16.7273C19.5091 16.7561 19.5493 16.7945 19.5803 16.8398C19.6113 16.8853 19.6325 16.9366 19.6422 16.9907C19.6422 16.9907 19.6422 17.0549 19.6422 17.087C19.6453 17.151 19.6328 17.2147 19.6061 17.2728C19.5792 17.331 19.5387 17.3819 19.4881 17.4211C19.3761 17.5021 19.2409 17.5449 19.1027 17.543H16.9317C16.7934 17.552 16.656 17.516 16.5398 17.4403C16.436 17.3627 16.3668 17.2473 16.3472 17.1192C16.3425 17.0486 16.3425 16.9777 16.3472 16.9072L16.3279 13.2524Z" fill="#FEE500"/>
<path d="M19.7579 13.2526C19.7541 13.1088 19.8045 12.969 19.8992 12.8608C19.9955 12.7733 20.1191 12.7216 20.249 12.7146C20.3787 12.7076 20.5071 12.7456 20.6122 12.8222C20.7034 12.8969 20.765 13.0016 20.7856 13.1176C20.7888 13.1625 20.7888 13.2077 20.7856 13.2526V14.8262L22.4107 12.9506C22.4733 12.8866 22.5399 12.8266 22.6098 12.7708C22.6759 12.7315 22.7515 12.7115 22.8282 12.713C22.9405 12.7123 23.0503 12.746 23.1429 12.8093C23.1866 12.8387 23.2239 12.8767 23.2527 12.9208C23.2813 12.965 23.3008 13.0144 23.3099 13.0663C23.3125 13.079 23.3125 13.0921 23.3099 13.1048C23.3069 13.1197 23.3069 13.135 23.3099 13.1498C23.3098 13.2174 23.292 13.2838 23.2586 13.3425C23.2245 13.4047 23.1835 13.4628 23.1365 13.5158L22.0703 14.6849L23.3549 16.676V16.7403C23.4216 16.8323 23.4736 16.9342 23.5091 17.0422V17.0742C23.5165 17.1488 23.5058 17.2238 23.4778 17.2933C23.4498 17.3626 23.4055 17.4242 23.3485 17.4725C23.2413 17.5536 23.1103 17.5965 22.976 17.5946C22.8867 17.5982 22.7981 17.5782 22.7191 17.5368C22.6335 17.4794 22.5631 17.4022 22.5135 17.312L21.3187 15.385L20.7471 15.9824V17.055C20.7509 17.1987 20.7005 17.3386 20.6058 17.4469C20.5551 17.4965 20.4947 17.5352 20.4283 17.5606C20.3621 17.5859 20.2914 17.5976 20.2205 17.5946C20.1019 17.5971 19.9863 17.5586 19.8928 17.4854C19.8021 17.4131 19.7405 17.3104 19.7194 17.1963C19.7131 17.1494 19.7131 17.1019 19.7194 17.055L19.7579 13.2526Z" fill="#FEE500"/>
</g>
<defs>
<clipPath id="clip0_268_3489">
<rect width="32" height="32" fill="white" transform="translate(0.5)"/>
</clipPath>
</defs>
</svg>
