<svg width="16" height="16" viewBox="0 0 16 16" fill="none" xmlns="http://www.w3.org/2000/svg">
<path d="M0.649902 11.75L4.9499 7.47502L1.6249 2.92502C1.4749 3.12502 1.3499 3.40002 1.3249 3.70002L0.499902 10.95C0.474902 11.25 0.524902 11.525 0.649902 11.75ZM15.0499 2.15002L8.8249 7.67502L13.7249 14C13.9999 13.775 14.1749 13.45 14.2249 13.05L15.3249 3.17502C15.3999 2.75002 15.2749 2.40002 15.0499 2.15002Z" fill="#C4CED6"/>
<path d="M8.8249 7.67505L15.0499 2.15005C14.8499 1.92505 14.5749 1.80005 14.2499 1.82505L2.1249 2.62505C1.9499 2.62505 1.7499 2.75005 1.6249 2.92505L4.9249 7.47505L0.649902 11.7501C0.749902 11.9501 0.899902 12.0751 1.0749 12.1251L12.8749 14.2501C13.1999 14.3001 13.4999 14.2251 13.7499 14.0251L8.8249 7.67505Z" fill="#DAE4EA"/>
<path d="M9.825 5.70002C9.4 3.47502 7.225 4.50002 6.925 5.55002C6.8 4.42502 5.075 3.65002 4.35 5.62502C3.55 7.77502 6.2 10.025 6.4 10.4C6.65 10.175 10.3 8.17502 9.825 5.70002Z" fill="#F46767"/>
</svg>
