<svg width="16" height="16" viewBox="0 0 16 16" fill="none" xmlns="http://www.w3.org/2000/svg">
<path d="M7.94995 14.85C4.46245 14.85 0.699951 12.6625 0.699951 7.8625C0.699951 3.0625 4.46245 0.875 7.94995 0.875C9.88745 0.875 11.675 1.5125 13 2.675C14.4375 3.95 15.2 5.75 15.2 7.8625C15.2 9.975 14.4375 11.7625 13 13.0375C11.675 14.2 9.87495 14.85 7.94995 14.85Z" fill="url(#paint0_radial_396_1960)"/>
<path d="M5.37496 5.96252C6.57246 5.96627 7.54121 6.94002 7.53746 8.13752C7.53371 9.33502 6.55996 10.3038 5.36246 10.3C4.16496 10.2963 3.19621 9.32252 3.19996 8.12502C3.20746 6.92877 4.17871 5.96377 5.37496 5.96252Z" fill="white"/>
<path d="M5.33748 9.77505C6.40062 9.77505 7.26248 8.9132 7.26248 7.85005C7.26248 6.7869 6.40062 5.92505 5.33748 5.92505C4.27433 5.92505 3.41248 6.7869 3.41248 7.85005C3.41248 8.9132 4.27433 9.77505 5.33748 9.77505Z" fill="#422B0D"/>
<path d="M6.20839 8.80736C6.34586 8.69196 6.37095 8.49555 6.26444 8.36865C6.15792 8.24175 5.96012 8.23242 5.82265 8.34782C5.68517 8.46322 5.66008 8.65963 5.7666 8.78653C5.87312 8.91343 6.07091 8.92276 6.20839 8.80736Z" fill="white"/>
<path d="M5.38146 7.98356C5.87989 7.61257 6.04 6.98409 5.73909 6.57982C5.43817 6.17554 4.79018 6.14856 4.29176 6.51955C3.79333 6.89054 3.63322 7.51902 3.93414 7.92329C4.23505 8.32757 4.88304 8.35455 5.38146 7.98356Z" fill="white"/>
<path d="M10.75 5.96252C11.9475 5.96627 12.9162 6.94002 12.9125 8.13752C12.9087 9.33502 11.935 10.3038 10.7375 10.3C9.53996 10.2963 8.57121 9.32252 8.57496 8.12502C8.58246 6.92877 9.55371 5.96377 10.75 5.96252Z" fill="white"/>
<path d="M10.7125 9.77505C11.7756 9.77505 12.6375 8.9132 12.6375 7.85005C12.6375 6.7869 11.7756 5.92505 10.7125 5.92505C9.64933 5.92505 8.78748 6.7869 8.78748 7.85005C8.78748 8.9132 9.64933 9.77505 10.7125 9.77505Z" fill="#422B0D"/>
<path d="M11.5934 8.79979C11.7309 8.6844 11.756 8.48798 11.6494 8.36108C11.5429 8.23418 11.3451 8.22486 11.2077 8.34025C11.0702 8.45565 11.0451 8.65207 11.1516 8.77896C11.2581 8.90586 11.4559 8.91519 11.5934 8.79979Z" fill="white"/>
<path d="M10.7578 7.98442C11.2562 7.61343 11.4163 6.98495 11.1154 6.58067C10.8145 6.17639 10.1665 6.14941 9.6681 6.5204C9.16968 6.89139 9.00956 7.51987 9.31048 7.92415C9.61139 8.32842 10.2594 8.35541 10.7578 7.98442Z" fill="white"/>
<mask id="mask0_396_1960" style="mask-type:luminance" maskUnits="userSpaceOnUse" x="8" y="5" width="5" height="6">
<path d="M10.75 5.96252C9.55254 5.96627 8.58379 6.94002 8.58754 8.13752C8.59129 9.33502 9.56504 10.3038 10.7625 10.3C11.96 10.2963 12.9288 9.32252 12.925 8.12502C12.9175 6.92877 11.9463 5.96377 10.75 5.96252Z" fill="white"/>
</mask>
<g mask="url(#mask0_396_1960)">
<path d="M12.7938 8.55872C12.5238 8.51372 12.25 8.61872 12.08 8.83497C11.9588 8.99372 11.7688 9.08372 11.5688 9.07872H11.535C11.3975 9.07872 11.2613 9.11622 11.1438 9.18747C10.9588 9.29997 10.725 9.29997 10.54 9.18747C10.4225 9.11622 10.2863 9.07872 10.1488 9.07872C10.1188 9.07622 10.09 9.07622 10.06 9.07872C9.84626 9.10997 9.63251 9.02497 9.50001 8.85497C9.35751 8.66122 9.13126 8.54747 8.89001 8.54872C8.47626 8.55872 8.14501 8.89372 8.14001 9.30747C8.14376 9.71997 8.47751 10.0537 8.89001 10.0575C8.92501 10.0575 8.96126 10.055 8.99626 10.05C9.20251 10.0162 9.41001 10.1 9.53501 10.2675C9.76626 10.5987 10.2175 10.6875 10.5563 10.4687C10.7325 10.3575 10.9563 10.3575 11.1325 10.4687C11.4613 10.6787 11.895 10.6025 12.1325 10.2937C12.2463 10.1375 12.43 10.0487 12.6238 10.0562H12.6713C13.0888 10.05 13.4225 9.70622 13.4163 9.28872C13.4113 8.92747 13.1513 8.62122 12.7963 8.55622L12.7938 8.55872Z" fill="#29B6F6"/>
</g>
<mask id="mask1_396_1960" style="mask-type:luminance" maskUnits="userSpaceOnUse" x="3" y="5" width="5" height="6">
<path d="M5.37504 5.96252C4.17754 5.96627 3.20879 6.94002 3.21254 8.13752C3.21629 9.33502 4.19004 10.3038 5.38754 10.3C6.58504 10.2963 7.55379 9.32252 7.55004 8.12502C7.54254 6.92877 6.57129 5.96377 5.37504 5.96252Z" fill="white"/>
</mask>
<g mask="url(#mask1_396_1960)">
<path d="M7.48758 8.55883C7.21758 8.51383 6.94383 8.62008 6.77508 8.83508C6.65258 8.99383 6.46258 9.08383 6.26258 9.07883H6.23008C6.09258 9.07758 5.95633 9.11508 5.83883 9.18758C5.65258 9.30008 5.42008 9.30008 5.23383 9.18758C5.11633 9.11508 4.98008 9.07758 4.84258 9.07883C4.81383 9.07758 4.78383 9.07758 4.75508 9.07883C4.53883 9.11133 4.32133 9.02383 4.18883 8.85008C4.04633 8.65633 3.82008 8.54258 3.58008 8.54383C3.16633 8.55383 2.83508 8.88883 2.83008 9.30258C2.83008 9.71633 3.16633 10.0526 3.58008 10.0526C3.58258 10.0526 3.58383 10.0526 3.58633 10.0526C3.62133 10.0526 3.65633 10.0501 3.69133 10.0451C3.89758 10.0113 4.10633 10.0951 4.23133 10.2626C4.45883 10.5951 4.90883 10.6876 5.25008 10.4726C5.42508 10.3613 5.65008 10.3613 5.82508 10.4726C6.15383 10.6826 6.58758 10.6063 6.82508 10.2976C6.93758 10.1413 7.12258 10.0526 7.31508 10.0601H7.36383C7.77758 10.0951 8.14133 9.78633 8.17633 9.37258C8.21133 8.95883 7.90258 8.59508 7.48758 8.55883Z" fill="#29B6F6"/>
</g>
<path d="M3.42495 4.97497C3.14995 5.02497 3.13745 5.42497 3.43745 5.43747C4.09995 5.44622 4.73995 5.19997 5.22495 4.74997C5.40995 4.58997 5.5662 4.39997 5.68745 4.18747C5.75995 4.08372 5.73495 3.94122 5.6312 3.86872C5.52745 3.79622 5.38495 3.82122 5.31245 3.92497L5.29995 3.93747C4.80995 4.48497 4.1487 4.85122 3.42495 4.97497Z" fill="#422B0D"/>
<path d="M10.5624 3.92497C10.4899 3.82122 10.3474 3.79622 10.2437 3.86872C10.1399 3.94122 10.1149 4.08372 10.1874 4.18747C10.3087 4.39997 10.4649 4.58997 10.6499 4.74997C11.1374 5.19622 11.7762 5.44247 12.4374 5.43747C12.7499 5.42497 12.7249 5.02497 12.4499 4.97497C11.7174 4.85497 11.0512 4.48372 10.5624 3.92497Z" fill="#422B0D"/>
<path d="M13.9362 3.70874C14.6025 4.78374 14.95 6.06374 14.95 7.48749C14.95 9.59999 14.1875 11.3875 12.75 12.6625C11.425 13.825 9.62499 14.475 7.69999 14.475C5.44249 14.475 3.07499 13.5562 1.67749 11.6075C3.02249 13.815 5.55249 14.85 7.94999 14.85C9.87499 14.85 11.675 14.2 13 13.0375C14.4375 11.7625 15.2 9.97499 15.2 7.86249C15.2 6.26999 14.7662 4.85499 13.9362 3.70874Z" fill="#EB8F00"/>
<path d="M7.99999 12.9C9.34999 12.9 10.225 11.9125 10.4625 11.45C10.55 11.275 10.55 11.125 10.475 11.0625C10.395 11.0125 10.2925 11.0125 10.2125 11.0625C10.1725 11.0788 10.135 11.1 10.1 11.125C9.48749 11.565 8.75374 11.805 7.99999 11.8125C7.24874 11.8025 6.51624 11.5675 5.89999 11.1375C5.86499 11.1125 5.82749 11.0913 5.78749 11.075C5.70749 11.025 5.60499 11.025 5.52499 11.075C5.44999 11.15 5.44999 11.2875 5.53749 11.4625C5.77499 11.9125 6.64999 12.9 7.99999 12.9Z" fill="#422B0D"/>
<defs>
<radialGradient id="paint0_radial_396_1960" cx="0" cy="0" r="1" gradientUnits="userSpaceOnUse" gradientTransform="translate(7.94995 7.86255) scale(7.11996)">
<stop offset="0.5" stop-color="#FDE030"/>
<stop offset="0.92" stop-color="#F7C02B"/>
<stop offset="1" stop-color="#F4A223"/>
</radialGradient>
</defs>
</svg>
